<svg width="27" height="24" viewBox="0 0 27 24" fill="none" xmlns="http://www.w3.org/2000/svg">
<g clip-path="url(#clip0_104_67)">
<path d="M4 3C3.46957 3 2.96086 3.21071 2.58579 3.58579C2.21071 3.96086 2 4.46957 2 5L2 17.793C2.00002 17.8919 2.02939 17.9886 2.0844 18.0709C2.1394 18.1531 2.21757 18.2172 2.309 18.255C2.40043 18.2928 2.50102 18.3026 2.59804 18.2832C2.69505 18.2638 2.78413 18.216 2.854 18.146L5.707 15.293C5.89449 15.1055 6.14881 15.0001 6.414 15H16C16.5304 15 17.0391 14.7893 17.4142 14.4142C17.7893 14.0391 18 13.5304 18 13V5C18 4.46957 17.7893 3.96086 17.4142 3.58579C17.0391 3.21071 16.5304 3 16 3H4Z" fill="white"/>
</g>
<path fill-rule="evenodd" clip-rule="evenodd" d="M8.26807 16H17.0002C17.5307 16 18.0394 15.7893 18.4145 15.4142C18.7895 15.0391 19.0002 14.5304 19.0002 14V6C19.0002 5.64588 18.9063 5.30145 18.7323 5H22.0001C22.5306 5 23.0393 5.21071 23.4143 5.58579C23.7894 5.96086 24.0001 6.46957 24.0001 7V19.793C24.0001 19.8919 23.9707 19.9886 23.9157 20.0709C23.8607 20.1531 23.7826 20.2172 23.6911 20.255C23.5997 20.2928 23.4991 20.3026 23.4021 20.2832C23.3051 20.2638 23.216 20.216 23.1461 20.146L20.2931 17.293C20.1056 17.1055 19.8513 17.0001 19.5861 17H10.0001C9.46969 17 8.96098 16.7893 8.58591 16.4142C8.46123 16.2895 8.35472 16.1501 8.26807 16Z" fill="white" fill-opacity="0.74"/>
<defs>
<clipPath id="clip0_104_67">
<rect width="16" height="16" fill="white" transform="translate(2 3)"/>
</clipPath>
</defs>
</svg>
